<svg width="70" height="79" viewBox="0 0 70 79" fill="none" xmlns="http://www.w3.org/2000/svg">
<path d="M56.0753 16.709L52.3037 21.553C57.6497 25.6969 61.334 31.6192 62.6883 38.2463C64.0427 44.8733 62.9775 51.7663 59.6859 57.6755C56.3944 63.5846 51.0943 68.1186 44.7468 70.4555C38.3992 72.7923 31.4244 72.7772 25.087 70.413C18.7496 68.0488 13.4692 63.4919 10.2032 57.5687C6.93711 51.6454 5.9017 44.7479 7.28464 38.1267C8.66759 31.5056 12.3773 25.5992 17.7412 21.4784C23.1052 17.3577 29.7681 15.2954 36.522 15.6655L31.2154 21.2324L35.1517 24.9889L43.5284 16.1885L47.2811 12.2472L43.3511 8.50577L34.557 0.127777L30.8018 4.0691L36.5296 9.52536C27.7441 9.12529 19.1391 12.1054 12.4828 17.8534C5.82655 23.6013 1.62469 31.6805 0.740705 40.4305C-0.143281 49.1805 2.35776 57.9368 7.72986 64.9C13.102 71.8631 20.937 76.5041 29.625 77.8693C31.4177 78.1527 33.2299 78.2952 35.0448 78.2955C42.2099 78.2777 49.1908 76.0238 55.0136 71.8483C60.8363 67.6728 65.2105 61.7839 67.526 55.0032C69.8415 48.2225 69.9827 40.8881 67.93 34.0233C65.8773 27.1585 61.733 21.1056 56.0753 16.709Z" fill="#FF6875"/>
<path d="M38.3416 61.4327V57.8999C42.5306 57.4323 46.6052 54.7871 46.6052 49.7633C46.6052 42.938 40.2588 42.156 35.6235 41.5852C32.6603 41.2307 30.391 40.8196 30.391 39.0243C30.391 36.5275 33.9112 36.2585 35.4198 36.2585C37.6652 36.2585 40.0614 37.3145 40.8761 38.661L41.1124 39.0532L45.7641 36.8984L45.534 36.4295C44.8436 35.0645 43.8234 33.8934 42.5659 33.0225C41.3084 32.1516 39.8534 31.6084 38.3328 31.4421V28.3306H32.8891V31.4271C27.8138 32.1814 24.799 34.9925 24.799 39.0231C24.799 45.5945 30.7657 46.2608 35.1194 46.7498C38.9991 47.2074 40.8044 48.1654 40.8044 49.7671C40.8044 52.8183 36.579 53.0559 35.284 53.0559C32.4013 53.0559 29.6266 51.6177 28.817 49.7068L28.6171 49.2353L23.5657 51.3763L23.7668 51.8478C25.2642 55.3541 28.4964 57.5504 32.8954 58.0697V61.4327H38.3416Z" fill="#FF6875"/>
</svg>
