<svg width="69" height="89" viewBox="0 0 69 89" fill="none" xmlns="http://www.w3.org/2000/svg">
<path d="M0.515381 70.401V88.966H68.183V70.401C68.1803 68.3312 67.3569 66.3469 65.8934 64.8834C64.4298 63.4198 62.4456 62.5964 60.3758 62.5938H8.3226C6.25282 62.5964 4.26856 63.4198 2.805 64.8834C1.34144 66.3469 0.518042 68.3312 0.515381 70.401H0.515381ZM5.72019 70.401C5.72119 69.7111 5.99569 69.0497 6.48352 68.5619C6.97135 68.0741 7.63271 67.7996 8.3226 67.7986H10.925V83.765H5.72019V70.401ZM16.1311 67.7986H22.8609L34.3492 79.2869L45.8375 67.7986H52.5635V83.765H16.1311V67.7986ZM62.9782 70.401V83.7613H57.7734V67.7948H60.3758C61.0663 67.7958 61.7282 68.0708 62.2162 68.5595C62.7041 69.0481 62.9782 69.7104 62.9782 70.401ZM38.4766 67.7986L34.3492 71.926L30.2218 67.7986H38.4766Z" fill="#FF6875"/>
<path d="M53.8207 52.1791H57.7771V46.9743H60.3795C62.4493 46.9716 64.4336 46.1482 65.8971 44.6847C67.3607 43.2211 68.1841 41.2368 68.1868 39.167V33.9622C68.1864 24.9885 64.6213 16.3823 58.2756 10.0372C51.93 3.69198 43.3236 0.127474 34.3498 0.127808C25.376 0.128141 16.7699 3.69328 10.4247 10.0389C4.07955 16.3846 0.515047 24.991 0.515381 33.9648L0.515381 39.1696C0.518042 41.2394 1.34144 43.2236 2.805 44.6872C4.26856 46.1507 6.25282 46.9741 8.3226 46.9768H12.2652C13.7126 51.076 16.2726 54.6913 19.6585 57.4179C23.0443 60.1445 27.1224 61.8746 31.4359 62.4146C35.7495 62.9547 40.1282 62.2832 44.0817 60.4754C48.0353 58.6676 51.4075 55.795 53.8207 52.1791ZM60.3795 41.7682H57.6263C57.7232 40.9041 57.7719 40.0353 57.7721 39.1658V33.961C57.7719 33.0915 57.7232 32.2227 57.6263 31.3586H60.3745C61.0644 31.3596 61.7258 31.6341 62.2136 32.1219C62.7014 32.6097 62.9759 33.2711 62.9769 33.961V39.1658C62.9773 39.8566 62.7033 40.5192 62.2154 41.0081C61.7274 41.497 61.0653 41.7722 60.3745 41.7732L60.3795 41.7682ZM34.3492 5.33576C40.6069 5.34381 46.6902 7.39837 51.6714 11.1861C56.6526 14.9738 60.2583 20.2867 61.9385 26.3147C61.4242 26.2099 60.9006 26.1573 60.3758 26.1575H56.4319C54.8174 21.5908 51.8267 17.6369 47.8718 14.8404C43.9169 12.0438 39.1923 10.5422 34.3486 10.5422C29.5048 10.5422 24.7802 12.0438 20.8253 14.8404C16.8704 17.6369 13.8797 21.5908 12.2652 26.1575H8.3226C7.79774 26.1573 7.2742 26.2099 6.7599 26.3147C8.44009 20.2867 12.0457 14.9738 17.0269 11.1861C22.0081 7.39837 28.0915 5.34381 34.3492 5.33576ZM49.2948 23.5602C47.612 25.964 45.3757 27.9278 42.7745 29.2858C40.1732 30.6437 37.2835 31.3559 34.3492 31.3623H16.3171C16.8382 27.7438 18.4362 24.3659 20.9033 21.668C23.3705 18.9701 26.5924 17.0771 30.1501 16.2354C33.7077 15.3937 37.4363 15.6422 40.8508 16.9486C44.2653 18.255 47.2075 20.5587 49.2948 23.5602ZM8.3226 41.7732C7.63271 41.7722 6.97135 41.4977 6.48352 41.0099C5.99569 40.5221 5.72119 39.8607 5.72019 39.1708V33.966C5.72119 33.2761 5.99569 32.6148 6.48352 32.1269C6.97135 31.6391 7.63271 31.3646 8.3226 31.3636H11.0759C10.979 32.2277 10.9303 33.0965 10.93 33.966V39.1708C10.9303 40.0403 10.979 40.9091 11.0759 41.7732H8.3226ZM16.1298 39.1708V36.5684H34.3492C37.6447 36.5623 40.902 35.8634 43.91 34.5171C46.9179 33.1709 49.6092 31.2072 51.8092 28.7537C52.315 30.4444 52.5712 32.2 52.5698 33.9648V39.1696C52.5726 41.8707 51.9713 44.5382 50.8097 46.9768H42.1564L39.8658 44.6912C38.4014 46.1553 36.4155 46.9778 34.3448 46.9778C32.2741 46.9778 30.2881 46.1553 28.8238 44.6912L25.144 48.371C27.3588 50.5858 30.2982 51.9275 33.4226 52.1496C36.547 52.3718 39.6467 51.4596 42.1526 49.5804V52.1791H47.0809C44.5196 54.6881 41.2745 56.3852 37.7527 57.0573C34.2308 57.7295 30.5888 57.3469 27.2835 55.9576C23.9782 54.5682 21.1566 52.2339 19.1726 49.2474C17.1887 46.2608 16.1306 42.755 16.1311 39.1696L16.1298 39.1708Z" fill="#FF6875"/>
</svg>
